<?xml version="1.0" encoding="utf-8"?>
<!-- Generator: Adobe Illustrator 15.1.0, SVG Export Plug-In . SVG Version: 6.00 Build 0)  -->
<!DOCTYPE svg PUBLIC "-//W3C//DTD SVG 1.1//EN" "http://www.w3.org/Graphics/SVG/1.1/DTD/svg11.dtd">
<svg version="1.1" id="Layer_1" xmlns="http://www.w3.org/2000/svg" xmlns:xlink="http://www.w3.org/1999/xlink" x="0px" y="0px"
	 width="78px" height="25px" viewBox="0 0 172 55" enable-background="new 0 0 172 55" xml:space="preserve">
<g>
	<g>
		<g>
			<path fill="#FFFFFF" d="M143.844,26.641h16.146c1.417,0,2.569,1.154,2.569,2.569v13.58c0,1.416-1.152,2.568-2.569,2.568h-13.596
				c-1.404-0.007-2.551-1.159-2.551-2.568V31.776h-8.439v11.022c0.007,6.064,4.944,10.997,11.007,10.997l13.581,0.003
				c6.058-0.003,10.996-4.931,11.008-10.989V29.21c-0.002-6.068-4.938-11.007-11.008-11.007l-16.148-0.001V26.641z"/>
		</g>
		<path fill="#FFFFFF" d="M25.004,18.206c-6.062,0-11,4.884-11.009,10.945l-0.001,24.655c5.773,0,8.44-4.279,8.44-8.453V29.168
			c0-1.416,1.153-2.57,2.57-2.57L39.951,26.6v-8.394H25.004z"/>
		<path fill="#FFFFFF" d="M76.739,9.651c0-4.426-3.104-8.448-8.438-8.448c-0.027,0-0.006,41.543-0.006,41.543
			c0.012,1.408-1.135,2.56-2.543,2.568H55.557c-1.419,0-2.57-1.153-2.57-2.571V29.168c0-1.416,1.151-2.57,2.57-2.57h8.15v-8.392
			h-8.15c-6.072,0.001-11.011,4.891-11.011,10.96v13.599c0.012,6.058,4.949,10.987,11.008,10.987l10.185,0.001
			c6.062-0.001,11.001-4.935,11.009-10.998L76.739,9.651z"/>
		<rect x="1" y="5.208" fill="#FFFFFF" width="8.439" height="8.439"/>
		<path fill="#FFFFFF" d="M9.456,18.216H1.017l0.001,27.137c0,4.26,2.661,8.438,8.415,8.452L9.456,18.216z"/>
		<path fill="#FFFFFF" d="M130.06,18.159c-1.412,0-2.564-1.149-2.569-2.561V1.187h-8.439l-0.01,44.144
			c0,4.17,2.683,8.46,8.436,8.474c0.01,0,0.019,0.001,0.026,0.001v-10.68c0-0.003-0.001-0.006-0.001-0.01V29.151
			c0-0.02-0.003-0.04-0.003-0.06c0.045-1.376,1.168-2.484,2.546-2.491h5.39v-8.441H130.06z"/>
		<path fill="#FFFFFF" d="M92.72,45.344c-1.409,0-2.561-1.117-2.569-2.525V29.228c0-1.417,1.152-2.571,2.569-2.571h10.184
			c1.417,0,2.569,1.154,2.569,2.571c0,0,0,1.622,0,2.567c-1.407,0-10.728,0-10.728,0v8.441h14.949c2.312,0,4.205-1.883,4.219-4.197
			l-0.002-6.812c0-6.07-4.938-11.008-11.008-11.01H92.7c-6.06,0.012-10.988,4.95-10.988,11.007l-0.001,13.581
			c0.001,6.062,4.935,11,10.998,11.007l12.842-0.013c4.151,0,8.356-2.701,8.37-8.454C113.921,45.337,92.72,45.344,92.72,45.344z"/>
	</g>
	<g>
		<path fill="#ADBF37" d="M148.948,31.714v8.438h8.44v-8.438H148.948z"/>
		<path fill="#ADBF37" d="M29.304,45.374v8.439h8.44v-8.439H29.304z"/>
	</g>
</g>
</svg>
